<?xml version="1.0" encoding="UTF-8"?>
<svg version="1.1" xmlns="http://www.w3.org/2000/svg" width="1344" height="960">
<path d="M0 0 C135.96 0 271.92 0 412 0 C412 22.11 412 44.22 412 67 C340.39 67 268.78 67 195 67 C195.33 72.61 195.66 78.22 196 84 C196.33 100.17 196.66 116.34 197 133 C246.17 133 295.34 133 346 133 C346 155.11 346 177.22 346 200 C296.17 200 246.34 200 195 200 C195.33 203.96 195.66 207.92 196 212 C196.33 229.49 196.66 246.98 197 265 C267.95 265 338.9 265 412 265 C412 287.44 412 309.88 412 333 C375.66737963 333.19837029 339.33526951 333.36456153 303.00226267 333.45958797 C298.71390984 333.47084447 294.42555815 333.48249336 290.13720703 333.49438477 C289.28346507 333.49674556 288.42972311 333.49910635 287.55011018 333.50153869 C273.72208482 333.54071235 259.89439583 333.61167962 246.06657009 333.69437516 C231.88038643 333.77850693 217.69437905 333.82852212 203.50795615 333.84679645 C194.75229057 333.85915259 185.99757567 333.8981905 177.24220271 333.9712482 C171.24017861 334.01878313 165.2386467 334.03321017 159.23644798 334.0215124 C155.77184658 334.01574086 152.30890724 334.02465012 148.84460068 334.07284927 C145.08812933 334.11750302 141.3357553 334.10691703 137.57919312 334.08229065 C136.48385895 334.10850622 135.38852479 334.1347218 134.25999868 334.16173178 C127.04140564 334.0334304 127.04140564 334.0334304 124.0272305 331.04233825 C122.47936466 328.75345805 121.21338405 326.47941854 120 324 C119.32308105 322.88906982 118.64616211 321.77813965 117.94873047 320.63354492 C117.0421167 319.07277222 117.0421167 319.07277222 116.1171875 317.48046875 C115.78124573 316.90433838 115.44530396 316.32820801 115.09918213 315.73461914 C114.38838294 314.51519381 113.67876114 313.29508148 112.97027588 312.0743103 C111.08534287 308.82717313 109.19069173 305.5857113 107.296875 302.34375 C106.92237213 301.70221481 106.54786926 301.06067963 106.16201782 300.39970398 C103.18634177 295.30673102 100.17069512 290.23893668 97.125 285.1875 C92.13872042 276.90794012 87.17875192 268.61294921 82.23651123 260.30703735 C81.3781229 258.8651442 80.51896512 257.42370881 79.65899658 255.98275757 C78.44640354 253.95065053 77.23655967 251.91693045 76.02734375 249.8828125 C75.66534378 249.27735092 75.30334381 248.67188934 74.93037415 248.04808044 C72.78891883 244.43765258 70.83397631 240.7755593 69 237 C73.30982784 233.04829539 77.71702785 229.43126002 82.5 226.0625 C105.80381417 209.15205048 120.23703888 177.92671446 125 150 C125.18433594 148.92363281 125.36867188 147.84726562 125.55859375 146.73828125 C129.64350809 112.14303323 119.14415787 76.36713929 98.24609375 48.7265625 C96.00770197 45.91179395 96.00770197 45.91179395 93.22265625 43.2734375 C91 41 91 41 91 39 C90.44570313 38.75765625 89.89140625 38.5153125 89.3203125 38.265625 C86.50948695 36.73244743 84.30584289 34.83357962 81.875 32.75 C76.8147514 28.56979464 71.76819004 25.11578133 66 22 C64.86304688 21.37351562 63.72609375 20.74703125 62.5546875 20.1015625 C42.89122739 9.57519934 21.72060472 5.10093397 0 1 C0 0.67 0 0.34 0 0 Z " fill="#F3EBC6" transform="translate(241,267)"/>
<path d="M0 0 C57.42 0 114.84 0 174 0 C174 87.45 174 174.9 174 265 C245.28 265 316.56 265 390 265 C391.15142617 304.14848993 391.15142617 304.14848993 391.0625 318.125 C391.05743554 319.60807127 391.05288201 321.09114437 391.04882812 322.57421875 C391.03830201 326.04952037 391.02136292 329.52474578 391 333 C355.30442916 333.11441942 319.60889046 333.20253565 283.91317403 333.25532665 C279.69992822 333.26158026 275.48668277 333.26805186 271.2734375 333.2746582 C270.43464861 333.27596976 269.59585972 333.27728131 268.73165299 333.2786326 C255.1462449 333.30039509 241.5609425 333.33982124 227.97559713 333.38576398 C214.0380018 333.4325052 200.10046186 333.46029045 186.16279137 333.47044247 C177.56095734 333.4773065 168.95942201 333.49899337 160.35767992 333.53958233 C154.46085233 333.56599192 148.56417938 333.57400508 142.66729693 333.56750689 C139.26390085 333.56430114 135.86102706 333.56924909 132.45772362 333.59602737 C128.76785403 333.62083226 125.07927193 333.61494917 121.38937378 333.60127258 C120.31349436 333.61583679 119.23761493 333.630401 118.12913311 333.64540654 C110.04731046 333.56420137 110.04731046 333.56420137 106.36793709 330.60913372 C104.05081567 328.05599172 102.95983166 326.41664177 101.953125 323.16015625 C101.63923828 322.19223145 101.32535156 321.22430664 101.00195312 320.22705078 C100.67130859 319.16212402 100.34066406 318.09719727 100 317 C99.18577044 314.60168073 98.36780002 312.20462948 97.546875 309.80859375 C96.60912365 307.02004571 95.67940784 304.22883846 94.75 301.4375 C94.49500732 300.67291473 94.24001465 299.90832947 93.97729492 299.12057495 C89.02947756 284.268247 84.25667906 269.36163228 79.50738525 254.44485474 C73.64990251 236.05380758 67.65836169 217.70884464 61.625 199.375 C56.06046224 182.46571123 50.53703218 165.55029614 45.29345703 148.53833008 C42.85867663 140.66465946 40.29887398 132.83971995 37.66412354 125.03109741 C26.76297295 92.71786697 16.59466807 60.14037819 6.71408081 27.5017395 C6.20280875 25.81353913 5.68961378 24.12591971 5.17434692 22.43893433 C4.47262901 20.13707918 3.77977345 17.8327555 3.08984375 15.52734375 C2.78963821 14.54846191 2.78963821 14.54846191 2.48336792 13.54980469 C1.11791318 8.92963123 0.61479718 4.91837741 0 0 Z " fill="#F3EBC6" transform="translate(802,267)"/>
<path d="M0 0 C14.540625 -0.061875 29.08125 -0.12375 44.0625 -0.1875 C48.62457275 -0.21481201 53.18664551 -0.24212402 57.88696289 -0.27026367 C63.53210449 -0.28381348 63.53210449 -0.28381348 66.18919373 -0.28633118 C68.01355699 -0.29088619 69.83791222 -0.30132758 71.66221619 -0.31672668 C96.40527931 -0.51483063 117.09477945 3.88242935 135.75 21.25 C148.35699897 34.39826547 152.5058014 50.96781151 152.203125 68.69140625 C151.67697969 83.40101743 144.61416816 98.42336452 134.3359375 108.89453125 C119.69059884 122.09492847 101.36317687 128.19838109 81.85180664 128.11352539 C80.948954 128.11364593 80.04610136 128.11376646 79.11588955 128.11389065 C76.21395277 128.11314849 73.31208144 128.10555221 70.41015625 128.09765625 C68.61031119 128.09618467 66.81046569 128.09516529 65.01062012 128.09460449 C58.36124019 128.08937666 51.71186944 128.07541539 45.0625 128.0625 C30.191875 128.041875 15.32125 128.02125 0 128 C0 85.76 0 43.52 0 0 Z " fill="#F3EBC6" transform="translate(151,333)"/>
<path d="M0 0 C22.39854175 -0.88239381 22.39854175 -0.88239381 32.01953125 -1.07421875 C38.56279629 -1.20530247 45.09923131 -1.35948114 51.63720703 -1.65966797 C86.91576025 -3.23827754 86.91576025 -3.23827754 95.31832886 2.11352539 C100.23080331 7.14184659 102.87225992 12.75970621 105.05485535 19.37503052 C106.41940257 23.16481529 108.44791373 26.00065634 110.8125 29.25 C111.59993906 30.41076225 112.38297136 31.57453476 113.16015625 32.7421875 C113.80621826 33.70656738 113.80621826 33.70656738 114.46533203 34.69042969 C118.6637527 41.0087656 122.79243054 47.37364475 126.93676758 53.72753906 C127.63310303 54.79456055 128.32943848 55.86158203 129.046875 56.9609375 C129.71525391 57.98670898 130.38363281 59.01248047 131.07226562 60.06933594 C133.33072786 63.50279347 135.6413525 66.89879104 137.97753906 70.27978516 C139 72 139 72 139 74 C93.13 74 47.26 74 0 74 C0 49.58 0 25.16 0 0 Z " fill="#F3EBC6" transform="translate(151,526)"/>
<path d="M0 0 C2.09490002 5.45680541 3.98471862 10.92863016 5.69921875 16.515625 C6.05908623 17.68300201 6.05908623 17.68300201 6.42622375 18.8739624 C6.92749742 20.50377961 7.42741637 22.13401406 7.92602539 23.76464844 C8.69026032 26.25900932 9.46314869 28.75058678 10.23632812 31.2421875 C10.72448929 32.83317052 11.21213776 34.42431096 11.69921875 36.015625 C11.93041916 36.75733948 12.16161957 37.49905396 12.39982605 38.26324463 C13.4410632 41.69845814 14 44.37396017 14 48 C-11.04268837 48.0617892 -36.07877895 47.93608402 -61.11962891 47.62768555 C-64.73516296 47.58326968 -68.35071225 47.54170074 -71.96630859 47.50268555 C-110.49746571 47.08642402 -110.49746571 47.08642402 -129 46 C-127.79720253 41.87336635 -126.5866571 37.74904017 -125.375 33.625 C-125.04371094 32.48804688 -124.71242188 31.35109375 -124.37109375 30.1796875 C-122.32927343 23.24520341 -120.15402014 16.37360654 -117.85400391 9.52099609 C-117.44055473 8.2850898 -117.44055473 8.2850898 -117.01875305 7.0242157 C-116.34674495 5.01583922 -115.67350173 3.00787609 -115 1 C-105.02614966 0.86696828 -95.05226936 0.73646303 -85.07834816 0.60884857 C-80.44284108 0.54946586 -75.80734667 0.48933622 -71.171875 0.42724609 C-47.4463706 0.1100992 -23.72774134 -0.07701216 0 0 Z " fill="#F3EBC6" transform="translate(824,552)"/>
<path d="M0 0 C1.93297586 2.89946379 2.79988984 5.11517704 3.84082031 8.40966797 C4.19635986 9.52700821 4.55189941 10.64434845 4.91821289 11.79554749 C5.30098389 13.01543869 5.68375488 14.2353299 6.078125 15.4921875 C6.48552955 16.77900896 6.89333439 18.06570374 7.30151367 19.35227966 C8.39681535 22.80909895 9.48605502 26.26780005 10.57392883 29.72696304 C11.47376414 32.58595126 12.37685146 35.44390755 13.27996445 38.30186176 C15.98620152 46.86633306 18.6815044 55.43421934 21.37280273 64.00339508 C22.35207501 67.12078725 23.33242552 70.23784043 24.3125 73.35498047 C25.99307926 78.70317293 27.66945484 84.05266088 29.34118652 89.40362549 C29.94601404 91.33952035 30.55156174 93.27519035 31.15783691 95.21063232 C31.98845758 97.86475108 32.81523354 100.52003238 33.640625 103.17578125 C33.88337158 103.94981796 34.12611816 104.72385468 34.3762207 105.52134705 C36 110.77011391 36 110.77011391 36 113 C11.91 113 -12.18 113 -37 113 C-33.62530109 100.62610399 -33.62530109 100.62610399 -31.81445312 95.14038086 C-31.40939041 93.90852554 -31.0043277 92.67667023 -30.58699036 91.40748596 C-30.15177685 90.09326087 -29.71652912 88.77904711 -29.28125 87.46484375 C-28.82144351 86.06937834 -28.36191113 84.67382259 -27.90263367 83.27818298 C-26.68755384 79.58784436 -25.46929137 75.89856427 -24.2503624 72.20949554 C-22.24906642 66.14984282 -20.25378407 60.08820466 -18.25777245 54.02680969 C-17.76603491 52.53365928 -17.27418456 51.040546 -16.78222084 49.54747009 C-13.87563605 40.72575491 -10.98227509 31.90023478 -8.13671875 23.05859375 C-7.87098053 22.23304489 -7.60524231 21.40749603 -7.33145142 20.55693054 C-6.17682754 16.96525598 -5.027123 13.37207239 -3.8828125 9.77709961 C-3.31240234 7.99638062 -3.31240234 7.99638062 -2.73046875 6.1796875 C-2.41489014 5.18694824 -2.09931152 4.19420898 -1.77416992 3.17138672 C-1 1 -1 1 0 0 Z " fill="#F3EBC6" transform="translate(767,375)"/>
<path d="M0 0 C3.96 0 7.92 0 12 0 C17.445 11.88 17.445 11.88 23 24 C26.73484581 16.02754067 30.46368825 8.06279079 34 0 C38.29 0 42.58 0 47 0 C47 0.99 47 1.98 47 3 C45.68 3.33 44.36 3.66 43 4 C43 13.57 43 23.14 43 33 C44.32 33.66 45.64 34.32 47 35 C47 35.66 47 36.32 47 37 C41.39 37 35.78 37 30 37 C30 36.34 30 35.68 30 35 C31.32 34.34 32.64 33.68 34 33 C34 26.4 34 19.8 34 13 C30.37 20.92 26.74 28.84 23 37 C19 36 19 36 17.62792969 33.86694336 C17.22993164 32.95050049 16.83193359 32.03405762 16.421875 31.08984375 C15.98359375 30.10048828 15.5453125 29.11113281 15.09375 28.09179688 C14.6503125 27.05087891 14.206875 26.00996094 13.75 24.9375 C13.29109375 23.89271484 12.8321875 22.84792969 12.359375 21.77148438 C11.2263423 19.18675353 10.11144796 16.5940856 9 14 C9 20.6 9 27.2 9 34 C10.32 34.33 11.64 34.66 13 35 C13 35.66 13 36.32 13 37 C8.38 37 3.76 37 -1 37 C-1 36.34 -1 35.68 -1 35 C0.32 34.34 1.64 33.68 3 33 C3 23.43 3 13.86 3 4 C1.68 3.67 0.36 3.34 -1 3 C-0.67 2.01 -0.34 1.02 0 0 Z " fill="#F4EDC9" transform="translate(699,656)"/>
<path d="M0 0 C5.61 0 11.22 0 17 0 C17 0.99 17 1.98 17 3 C16.03320312 3.30550781 16.03320312 3.30550781 15.046875 3.6171875 C12.68846128 4.8667935 12.68846128 4.8667935 12.390625 7.8203125 C12.32101562 9.45613281 12.32101562 9.45613281 12.25 11.125 C12.1675 13.06375 12.085 15.0025 12 17 C16.95 17 21.9 17 27 17 C26.87625 14.091875 26.87625 14.091875 26.75 11.125 C26.70359375 10.03445313 26.6571875 8.94390625 26.609375 7.8203125 C26.31153872 4.8667935 26.31153872 4.8667935 23.953125 3.6171875 C23.30859375 3.41351562 22.6640625 3.20984375 22 3 C22 2.01 22 1.02 22 0 C27.61 0 33.22 0 39 0 C39 0.99 39 1.98 39 3 C37.02 3.99 37.02 3.99 35 5 C35 14.24 35 23.48 35 33 C36.32 33.66 37.64 34.32 39 35 C39 35.66 39 36.32 39 37 C33.39 37 27.78 37 22 37 C22 36.34 22 35.68 22 35 C22.64453125 34.79632812 23.2890625 34.59265625 23.953125 34.3828125 C26.31153872 33.1332065 26.31153872 33.1332065 26.609375 30.1796875 C26.67898438 28.54386719 26.67898438 28.54386719 26.75 26.875 C26.8325 24.93625 26.915 22.9975 27 21 C22.05 21 17.1 21 12 21 C12.0825 22.93875 12.165 24.8775 12.25 26.875 C12.29640625 27.96554687 12.3428125 29.05609375 12.390625 30.1796875 C12.68846128 33.1332065 12.68846128 33.1332065 15.046875 34.3828125 C15.69140625 34.58648438 16.3359375 34.79015625 17 35 C17 35.66 17 36.32 17 37 C11.39 37 5.78 37 0 37 C0 36.34 0 35.68 0 35 C1.32 34.34 2.64 33.68 4 33 C4 23.43 4 13.86 4 4 C2.68 3.67 1.36 3.34 0 3 C0 2.01 0 1.02 0 0 Z " fill="#F4EDC8" transform="translate(578,656)"/>
<path d="M0 0 C5.28 0 10.56 0 16 0 C16 0.99 16 1.98 16 3 C14.02 3.99 14.02 3.99 12 5 C12 8.3 12 11.6 12 15 C13.64886059 13.37807179 15.2940024 11.75236228 16.9375 10.125 C17.85402344 9.22007812 18.77054687 8.31515625 19.71484375 7.3828125 C22.01187627 5.22317745 22.01187627 5.22317745 23 3 C22.01 3 21.02 3 20 3 C20 2.01 20 1.02 20 0 C24.95 0 29.9 0 35 0 C35 0.99 35 1.98 35 3 C34.175 3.33 33.35 3.66 32.5 4 C28.50806917 5.95794703 25.75611944 9.06038524 22.734375 12.2578125 C21 14 21 14 19 15 C22.34819154 22.71152627 30.41986971 31.20993485 38 35 C38 35.66 38 36.32 38 37 C32.06 37 26.12 37 20 37 C20 36.34 20 35.68 20 35 C20.99 35 21.98 35 23 35 C19.90714109 29.92771139 16.28482068 26.12001988 12 22 C12 25.63 12 29.26 12 33 C13.32 33.66 14.64 34.32 16 35 C16 35.66 16 36.32 16 37 C10.39 37 4.78 37 -1 37 C-1 36.34 -1 35.68 -1 35 C0.32 34.34 1.64 33.68 3 33 C3 23.43 3 13.86 3 4 C1.68 3.67 0.36 3.34 -1 3 C-0.67 2.01 -0.34 1.02 0 0 Z " fill="#F4EDC9" transform="translate(363,656)"/>
<path d="M0 0 C2.97941998 -0.05455703 5.95781531 -0.09393851 8.9375 -0.125 C10.18370117 -0.15013672 10.18370117 -0.15013672 11.45507812 -0.17578125 C18.78791974 -0.23284617 27.12830083 0.13487783 33 5 C36.85725474 10.46444422 38.48819073 15.37090577 37.78125 22.07421875 C36.77953284 27.13096401 34.77938516 30.38858751 31 34 C24.64853207 37.62941024 18.74634521 37.35377298 11.5625 37.1875 C10.44939453 37.17396484 9.33628906 37.16042969 8.18945312 37.14648438 C5.45912788 37.11132997 2.72982256 37.06212106 0 37 C0 36.34 0 35.68 0 35 C1.98 34.505 1.98 34.505 4 34 C4.02896822 29.56251365 4.04678788 25.12505153 4.0625 20.6875 C4.07087891 19.42486328 4.07925781 18.16222656 4.08789062 16.86132812 C4.09272461 15.04858398 4.09272461 15.04858398 4.09765625 13.19921875 C4.10551147 11.52605591 4.10551147 11.52605591 4.11352539 9.8190918 C4.12749254 6.91947938 4.12749254 6.91947938 3 4 C2.01 3.67 1.02 3.34 0 3 C0 2.01 0 1.02 0 0 Z M12 4 C12 13.9 12 23.8 12 34 C21.29388568 33.30040566 21.29388568 33.30040566 27.75 28 C30.32360829 23.88222673 30.49283422 19.72224787 30 15 C28.28271412 10.30005971 26.13393334 7.79040501 22 5 C18.4202491 3.63106761 18.4202491 3.63106761 12 4 Z " fill="#F5EDC8" transform="translate(940,656)"/>
<path d="M0 0 C5.37901748 5.90379967 6.14652418 11.0612264 5.90234375 18.875 C5.29471565 24.12714177 3.71162946 27.69953377 -0.0625 31.41015625 C-5.70494304 35.63023344 -11.63069543 35.67655136 -18.4375 34.8125 C-23.64806505 33.10722417 -26.33585481 30.29265417 -29.4375 25.8125 C-32.01190922 19.84455136 -31.74364525 14.07821129 -30.4375 7.8125 C-27.47328669 1.98993815 -23.85820256 -1.28486515 -17.75 -3.5625 C-11.60493189 -4.85191883 -5.07642849 -3.80417222 0 0 Z M-21.4375 4.8125 C-24.25977729 10.32876925 -24.5571477 17.22357522 -22.71484375 23.12890625 C-21.22432728 26.4056287 -19.79559002 28.50152709 -17.0625 30.875 C-13.63018809 32.10082568 -11.89614937 31.96538312 -8.4375 30.8125 C-5.37587466 28.22712749 -3.70935834 26.62807502 -2.4375 22.8125 C-2.26508292 20.37887528 -2.17084232 17.93929404 -2.125 15.5 C-2.08761719 14.20449219 -2.05023437 12.90898438 -2.01171875 11.57421875 C-2.50132273 7.24863498 -3.72953644 5.16977081 -6.4375 1.8125 C-12.20689737 -2.28191103 -17.05574954 -0.17819463 -21.4375 4.8125 Z " fill="#F5EDC9" transform="translate(908.4375,659.1875)"/>
<path d="M0 0 C5.37901748 5.90379967 6.14652418 11.0612264 5.90234375 18.875 C5.29471565 24.12714177 3.71162946 27.69953377 -0.0625 31.41015625 C-5.70494304 35.63023344 -11.63069543 35.67655136 -18.4375 34.8125 C-23.64806505 33.10722417 -26.33585481 30.29265417 -29.4375 25.8125 C-32.01190922 19.84455136 -31.74364525 14.07821129 -30.4375 7.8125 C-27.47328669 1.98993815 -23.85820256 -1.28486515 -17.75 -3.5625 C-11.60493189 -4.85191883 -5.07642849 -3.80417222 0 0 Z M-21.4375 4.8125 C-24.25977729 10.32876925 -24.5571477 17.22357522 -22.71484375 23.12890625 C-21.22432728 26.4056287 -19.79559002 28.50152709 -17.0625 30.875 C-13.63018809 32.10082568 -11.89614937 31.96538312 -8.4375 30.8125 C-5.37587466 28.22712749 -3.70935834 26.62807502 -2.4375 22.8125 C-2.26508292 20.37887528 -2.17084232 17.93929404 -2.125 15.5 C-2.08761719 14.20449219 -2.05023437 12.90898438 -2.01171875 11.57421875 C-2.50132273 7.24863498 -3.72953644 5.16977081 -6.4375 1.8125 C-12.20689737 -2.28191103 -17.05574954 -0.17819463 -21.4375 4.8125 Z " fill="#F5EDC9" transform="translate(667.4375,659.1875)"/>
<path d="M0 0 C9.9 0 19.8 0 30 0 C30 3.3 30 6.6 30 10 C29.01 10 28.02 10 27 10 C26.57074219 9.18144531 26.14148438 8.36289062 25.69921875 7.51953125 C25.13847656 6.68808594 24.57773437 5.85664062 24 5 C21.03618482 4.39518228 21.03618482 4.39518228 17.8125 4.6875 C16.72582031 4.73261719 15.63914062 4.77773438 14.51953125 4.82421875 C13.68808594 4.88222656 12.85664062 4.94023438 12 5 C11.67 8.63 11.34 12.26 11 16 C13.660625 15.87625 13.660625 15.87625 16.375 15.75 C17.37273438 15.70359375 18.37046875 15.6571875 19.3984375 15.609375 C22.1526477 15.27839115 22.1526477 15.27839115 23.3515625 12.953125 C23.56554687 12.30859375 23.77953125 11.6640625 24 11 C24.99 11 25.98 11 27 11 C27 15.62 27 20.24 27 25 C26.01 25 25.02 25 24 25 C23.78601563 24.35546875 23.57203125 23.7109375 23.3515625 23.046875 C22.1526477 20.72160885 22.1526477 20.72160885 19.3984375 20.390625 C17.90183594 20.32101562 17.90183594 20.32101562 16.375 20.25 C14.60125 20.1675 12.8275 20.085 11 20 C11.33 24.62 11.66 29.24 12 34 C14.083125 33.731875 16.16625 33.46375 18.3125 33.1875 C19.48425781 33.03667969 20.65601563 32.88585937 21.86328125 32.73046875 C25.02888504 31.99327335 26.1113885 31.5589719 28 29 C28.33 28.34 28.66 27.68 29 27 C30.32 27 31.64 27 33 27 C32.34 30.3 31.68 33.6 31 37 C20.77 37 10.54 37 0 37 C0 36.34 0 35.68 0 35 C1.98 34.505 1.98 34.505 4 34 C3.67 24.1 3.34 14.2 3 4 C2.01 3.67 1.02 3.34 0 3 C0 2.01 0 1.02 0 0 Z " fill="#F5EDC8" transform="translate(766,656)"/>
<path d="M0 0 C9.9 0 19.8 0 30 0 C30 3.3 30 6.6 30 10 C29.01 9.67 28.02 9.34 27 9 C26.61714844 8.00226562 26.61714844 8.00226562 26.2265625 6.984375 C25.61941406 6.00210938 25.61941406 6.00210938 25 5 C21.89069059 4.29327794 21.89069059 4.29327794 18.375 4.25 C17.18648438 4.19328125 15.99796875 4.1365625 14.7734375 4.078125 C13.85820312 4.05234375 12.94296875 4.0265625 12 4 C12 7.96 12 11.92 12 16 C13.60875 15.9175 15.2175 15.835 16.875 15.75 C17.77992188 15.70359375 18.68484375 15.6571875 19.6171875 15.609375 C22.17110544 15.24388852 22.17110544 15.24388852 23.3203125 12.953125 C23.65675781 11.98632812 23.65675781 11.98632812 24 11 C24.99 11 25.98 11 27 11 C27 15.62 27 20.24 27 25 C26.01 25 25.02 25 24 25 C23.77570313 24.35546875 23.55140625 23.7109375 23.3203125 23.046875 C22.17110544 20.75611148 22.17110544 20.75611148 19.6171875 20.390625 C18.25980469 20.32101562 18.25980469 20.32101562 16.875 20.25 C15.26625 20.1675 13.6575 20.085 12 20 C12.33 24.29 12.66 28.58 13 33 C20.28257541 33.39343066 20.28257541 33.39343066 27 31 C28.01241685 29.67607028 29.01439389 28.34400833 30 27 C30.99 27 31.98 27 33 27 C32.125 34.75 32.125 34.75 31 37 C20.77 37 10.54 37 0 37 C0 36.34 0 35.68 0 35 C1.32 34.34 2.64 33.68 4 33 C4 23.76 4 14.52 4 5 C2.68 4.34 1.36 3.68 0 3 C0 2.01 0 1.02 0 0 Z " fill="#F4ECC8" transform="translate(414,656)"/>
<path d="M0 0 C1.32 0 2.64 0 4 0 C4.4031543 0.95366455 4.80630859 1.9073291 5.22167969 2.88989258 C6.72348169 6.43394732 8.24031265 9.97140201 9.76171875 13.50708008 C10.41751851 15.03690152 11.06925439 16.56847181 11.71679688 18.10180664 C12.64946076 20.30830058 13.59666322 22.50804723 14.546875 24.70703125 C14.83246277 25.39150833 15.11805054 26.07598541 15.41229248 26.78120422 C17.07297669 30.57980581 18.53877001 32.73182397 22 35 C22 35.66 22 36.32 22 37 C16.72 37 11.44 37 6 37 C6 36.34 6 35.68 6 35 C7.485 34.505 7.485 34.505 9 34 C8.34 31.69 7.68 29.38 7 27 C2.71 26.67 -1.58 26.34 -6 26 C-6.66 28.97 -7.32 31.94 -8 35 C-7.01 35 -6.02 35 -5 35 C-5 35.66 -5 36.32 -5 37 C-8.96 37 -12.92 37 -17 37 C-16.67 36.01 -16.34 35.02 -16 34 C-15.34 34 -14.68 34 -14 34 C-13.72816895 33.14841309 -13.45633789 32.29682617 -13.17626953 31.41943359 C-11.9874093 27.96339865 -10.62665033 24.64478481 -9.1796875 21.2890625 C-8.91616486 20.67606293 -8.65264221 20.06306335 -8.38113403 19.43148804 C-7.54803974 17.49499895 -6.71158087 15.55998502 -5.875 13.625 C-5.30576555 12.30348189 -4.73675298 10.98186819 -4.16796875 9.66015625 C-2.78120828 6.4389954 -1.39142874 3.21914754 0 0 Z M0 11 C-0.67119549 12.4562545 -1.33681807 13.91507867 -2 15.375 C-2.37125 16.18710937 -2.7425 16.99921875 -3.125 17.8359375 C-4.12495013 19.91998433 -4.12495013 19.91998433 -4 22 C-1.03 22 1.94 22 5 22 C4.54917531 20.53932801 4.08906463 19.08151968 3.625 17.625 C3.36976563 16.81289063 3.11453125 16.00078125 2.8515625 15.1640625 C2.10145717 12.83540815 2.10145717 12.83540815 0 11 Z " fill="#F5EDC9" transform="translate(324,656)"/>
<path d="M0 0 C1.78417969 0.07446289 1.78417969 0.07446289 4 1 C5.35474714 3.28028818 6.41616338 5.38799886 7.453125 7.80859375 C7.75820984 8.49051285 8.06329468 9.17243195 8.37762451 9.87501526 C9.01968759 11.31703913 9.65471679 12.76221241 10.28320312 14.21020508 C11.24731057 16.43130413 12.23089332 18.64289114 13.21875 20.85351562 C13.83969188 22.25469918 14.45952178 23.65637614 15.078125 25.05859375 C15.51865204 26.05553505 15.51865204 26.05553505 15.96807861 27.07261658 C18 31.76344677 18 31.76344677 18 34 C18.99 34.33 19.98 34.66 21 35 C21 35.66 21 36.32 21 37 C16.05 37 11.1 37 6 37 C6 36.34 6 35.68 6 35 C6.99 34.34 7.98 33.68 9 33 C8.34 30.69 7.68 28.38 7 26 C0.565 26.495 0.565 26.495 -6 27 C-6.66 29.31 -7.32 31.62 -8 34 C-7.01 34.33 -6.02 34.66 -5 35 C-5 35.66 -5 36.32 -5 37 C-9.29 37 -13.58 37 -18 37 C-18 36.34 -18 35.68 -18 35 C-17.05314331 34.86839478 -17.05314331 34.86839478 -16.0871582 34.73413086 C-15.398396 34.49186768 -14.70963379 34.24960449 -14 34 C-13.2370205 31.95042762 -12.4985321 29.88849712 -11.88427734 27.78955078 C-10.15337344 22.32922279 -7.64830264 17.1606561 -5.3125 11.9375 C-4.80138672 10.78572266 -4.29027344 9.63394531 -3.76367188 8.44726562 C-2.51278694 5.62985188 -1.25815677 2.81417202 0 0 Z M0 11 C-0.67119549 12.4562545 -1.33681807 13.91507867 -2 15.375 C-2.37125 16.18710937 -2.7425 16.99921875 -3.125 17.8359375 C-4.12495013 19.91998433 -4.12495013 19.91998433 -4 22 C-1.03 22 1.94 22 5 22 C4.54917531 20.53932801 4.08906463 19.08151968 3.625 17.625 C3.36976563 16.81289063 3.11453125 16.00078125 2.8515625 15.1640625 C2.10145717 12.83540815 2.10145717 12.83540815 0 11 Z " fill="#F5EDC9" transform="translate(1014,656)"/>
<path d="M0 0 C5.28 0 10.56 0 16 0 C16 0.99 16 1.98 16 3 C15.01 3 14.02 3 13 3 C14.14426266 4.813492 15.29045392 6.62576725 16.4375 8.4375 C17.07558594 9.44683594 17.71367188 10.45617187 18.37109375 11.49609375 C19.77649542 13.84553835 19.77649542 13.84553835 21 15 C23.31 11.04 25.62 7.08 28 3 C27.01 3 26.02 3 25 3 C25 2.01 25 1.02 25 0 C29.29 0 33.58 0 38 0 C38 0.99 38 1.98 38 3 C37.27296875 3.42667969 36.5459375 3.85335937 35.796875 4.29296875 C32.35189591 6.39556074 30.41298694 8.99358298 28.25 12.3125 C27.65360718 13.22443115 27.65360718 13.22443115 27.04516602 14.15478516 C23.16045457 20.58232173 22.71549963 26.5119502 23 34 C24.65 34.33 26.3 34.66 28 35 C28 35.66 28 36.32 28 37 C22.06 37 16.12 37 10 37 C10 36.34 10 35.68 10 35 C12.475 34.505 12.475 34.505 15 34 C15.6334582 21.74072071 11.94607479 14.94696285 4 6 C3.23300781 5.43667969 2.46601562 4.87335937 1.67578125 4.29296875 C1.12277344 3.86628906 0.56976562 3.43960938 0 3 C0 2.01 0 1.02 0 0 Z " fill="#F5EECA" transform="translate(1043,656)"/>
<path d="M0 0 C1.34888732 0.00015905 2.69778075 0.00584927 4.04663086 0.01586914 C5.10991859 0.01799156 5.10991859 0.01799156 6.19468689 0.02015686 C8.46699173 0.02577096 10.73919936 0.03832576 13.01147461 0.05102539 C14.54858257 0.05603858 16.08569206 0.0606018 17.62280273 0.06469727 C21.39823103 0.07574497 25.17358632 0.09301898 28.94897461 0.11352539 C28.94897461 3.74352539 28.94897461 7.37352539 28.94897461 11.11352539 C27.95897461 11.11352539 26.96897461 11.11352539 25.94897461 11.11352539 C25.28897461 9.13352539 24.62897461 7.15352539 23.94897461 5.11352539 C21.30897461 4.78352539 18.66897461 4.45352539 15.94897461 4.11352539 C16.44397461 18.46852539 16.44397461 18.46852539 16.94897461 33.11352539 C18.26897461 33.77352539 19.58897461 34.43352539 20.94897461 35.11352539 C20.94897461 35.77352539 20.94897461 36.43352539 20.94897461 37.11352539 C15.33897461 37.11352539 9.72897461 37.11352539 3.94897461 37.11352539 C3.94897461 36.45352539 3.94897461 35.79352539 3.94897461 35.11352539 C5.26897461 34.45352539 6.58897461 33.79352539 7.94897461 33.11352539 C8.27897461 23.54352539 8.60897461 13.97352539 8.94897461 4.11352539 C6.30897461 4.44352539 3.66897461 4.77352539 0.94897461 5.11352539 C0.28897461 7.09352539 -0.37102539 9.07352539 -1.05102539 11.11352539 C-2.04102539 11.11352539 -3.03102539 11.11352539 -4.05102539 11.11352539 C-4.0779069 9.46777973 -4.09736662 7.82191126 -4.11352539 6.17602539 C-4.12512695 5.25950195 -4.13672852 4.34297852 -4.14868164 3.39868164 C-3.99815917 -0.12354421 -3.59412175 0.13373343 0 0 Z " fill="#F5ECC8" transform="translate(835.051025390625,655.886474609375)"/>
<path d="M0 0 C10.56 0 21.12 0 32 0 C32 3.63 32 7.26 32 11 C31.01 11 30.02 11 29 11 C28.814375 10.21625 28.62875 9.4325 28.4375 8.625 C27.963125 7.75875 27.48875 6.8925 27 6 C24.69 5.34 22.38 4.68 20 4 C20 13.9 20 23.8 20 34 C21.65 34.33 23.3 34.66 25 35 C25 35.66 25 36.32 25 37 C19.06 37 13.12 37 7 37 C7 36.34 7 35.68 7 35 C9.475 34.505 9.475 34.505 12 34 C12.33 24.1 12.66 14.2 13 4 C10.36 4.66 7.72 5.32 5 6 C3.40311361 8.48313064 3.40311361 8.48313064 3 11 C2.01 11 1.02 11 0 11 C0 7.37 0 3.74 0 0 Z " fill="#F5EDCB" transform="translate(513,656)"/>
<path d="M0 0 C10.56 0 21.12 0 32 0 C32 3.63 32 7.26 32 11 C31.01 11 30.02 11 29 11 C28.814375 10.21625 28.62875 9.4325 28.4375 8.625 C27.963125 7.75875 27.48875 6.8925 27 6 C24.69 5.34 22.38 4.68 20 4 C20 13.9 20 23.8 20 34 C21.65 34.33 23.3 34.66 25 35 C25 35.66 25 36.32 25 37 C19.06 37 13.12 37 7 37 C7 36.34 7 35.68 7 35 C9.475 34.505 9.475 34.505 12 34 C12.33 24.1 12.66 14.2 13 4 C10.36 4.66 7.72 5.32 5 6 C3.40311361 8.48313064 3.40311361 8.48313064 3 11 C2.01 11 1.02 11 0 11 C0 7.37 0 3.74 0 0 Z " fill="#F5EDCB" transform="translate(265,656)"/>
<path d="M0 0 C5.94 0 11.88 0 18 0 C18 0.99 18 1.98 18 3 C17.360625 3.12375 16.72125 3.2475 16.0625 3.375 C15.381875 3.58125 14.70125 3.7875 14 4 C12.59087904 6.81824192 12.88816447 9.17251282 12.90234375 12.3203125 C12.90556641 13.57714844 12.90878906 14.83398438 12.91210938 16.12890625 C12.92048828 17.44761719 12.92886719 18.76632812 12.9375 20.125 C12.94251511 21.46484211 12.94707799 22.804686 12.95117188 24.14453125 C12.96298914 27.42973206 12.97946383 30.71484397 13 34 C14.65 34.33 16.3 34.66 18 35 C18 35.66 18 36.32 18 37 C12.06 37 6.12 37 0 37 C0 36.34 0 35.68 0 35 C2.475 34.505 2.475 34.505 5 34 C4.67 24.1 4.34 14.2 4 4 C2.68 3.67 1.36 3.34 0 3 C0 2.01 0 1.02 0 0 Z " fill="#F4ECC9" transform="translate(480,656)"/>
</svg>
