<?xml version="1.0" standalone="no"?>
<!DOCTYPE svg PUBLIC "-//W3C//DTD SVG 20010904//EN"
 "http://www.w3.org/TR/2001/REC-SVG-20010904/DTD/svg10.dtd">
<svg version="1.0" xmlns="http://www.w3.org/2000/svg"
 width="1680.000000pt" height="966.000000pt" viewBox="0 0 1680.000000 966.000000"
 preserveAspectRatio="xMidYMid meet">
<metadata>
Created by potrace 1.16, written by Peter Selinger 2001-2019
</metadata>
<g transform="translate(0.000000,966.000000) scale(0.100000,-0.100000)"
fill="#000000" stroke="none">
<path d="M1695 7585 c6 -2 80 -18 165 -35 960 -189 1494 -639 1714 -1441 170
-623 80 -1162 -285 -1714 -110 -165 -225 -286 -374 -393 -150 -108 -162 -118
-149 -139 5 -10 205 -345 443 -745 l433 -728 2229 0 2229 0 0 525 0 525 -1684
0 -1683 0 -7 273 c-3 149 -9 379 -13 510 l-6 237 1177 0 1176 0 0 525 0 525
-1163 0 -1164 0 -6 223 c-4 122 -10 354 -13 515 l-7 292 1697 0 1696 0 -2 523
-3 522 -3205 2 c-1763 1 -3200 0 -3195 -2z"/>
<path d="M10528 7582 c-71 -2 -88 -6 -88 -18 0 -56 262 -895 660 -2114 643
-1969 788 -2415 879 -2711 38 -125 76 -240 85 -258 9 -17 35 -45 58 -61 l41
-30 2181 2 c2169 3 2181 3 2185 23 2 11 0 246 -4 522 l-7 503 -1689 0 -1689 0
0 2075 0 2075 -1262 -2 c-695 -1 -1302 -4 -1350 -6z"/>
<path d="M270 5554 l0 -995 723 4 722 3 105 26 c217 54 372 134 512 267 135
128 221 271 269 451 33 123 33 357 0 480 -90 336 -326 579 -671 694 -189 63
-238 66 -989 66 l-671 0 0 -996z"/>
<path d="M9872 5848 c-5 -18 -132 -408 -282 -866 -149 -458 -270 -835 -268
-838 3 -2 255 -3 560 -2 l555 3 -271 862 c-149 474 -274 864 -278 868 -4 4
-11 -8 -16 -27z"/>
<path d="M272 2963 l3 -568 1073 -3 c698 -1 1073 1 1070 8 -1 5 -167 261 -368
569 l-365 560 -708 1 -707 0 2 -567z"/>
<path d="M9345 3110 l-359 -5 -106 -340 -106 -340 235 -6 c130 -4 629 -10
1109 -14 l873 -8 -6 24 c-3 13 -52 175 -109 359 l-102 335 -534 0 c-294 0
-697 -2 -895 -5z"/>
<path d="M8095 1537 c-68 -23 -101 -44 -147 -96 -139 -154 -83 -398 111 -484
105 -46 250 -17 334 67 59 58 80 109 85 204 4 77 2 87 -27 147 -50 102 -140
162 -254 170 -37 3 -78 0 -102 -8z m181 -62 c87 -36 154 -138 154 -235 -1
-142 -111 -250 -256 -250 -161 0 -280 147 -245 304 35 157 199 243 347 181z"/>
<path d="M11865 1537 c-68 -23 -101 -44 -147 -96 -139 -154 -83 -398 111 -484
105 -46 250 -17 334 67 59 58 80 109 85 204 4 77 2 87 -27 147 -50 102 -140
162 -254 170 -37 3 -78 0 -102 -8z m181 -62 c87 -36 154 -138 154 -235 -1
-142 -111 -250 -256 -250 -161 0 -280 147 -245 304 35 157 199 243 347 181z"/>
<path d="M2050 1515 l0 -25 100 0 100 0 0 -275 0 -275 25 0 25 0 0 275 0 275
100 0 100 0 0 25 0 25 -225 0 -225 0 0 -25z"/>
<path d="M2972 1523 c-17 -32 -252 -571 -252 -577 0 -3 9 -6 19 -6 25 0 53 35
75 94 l18 46 168 0 168 0 22 -52 c27 -64 47 -88 73 -88 24 0 34 -28 -116 317
-107 247 -125 282 -144 283 -12 0 -26 -8 -31 -17z m163 -374 c6 -18 -1 -19
-134 -19 -78 0 -141 3 -141 6 0 3 23 58 51 122 28 64 60 137 71 161 l19 45 64
-148 c36 -82 67 -157 70 -167z"/>
<path d="M3640 1240 l0 -300 25 0 25 0 0 300 0 300 -25 0 -25 0 0 -300z"/>
<path d="M3977 1518 c-13 -13 -72 -78 -132 -145 l-107 -123 133 -150 c73 -83
142 -153 155 -156 61 -15 50 4 -81 151 -74 83 -133 153 -132 157 1 4 47 57
101 119 55 61 110 125 124 140 l24 29 -31 0 c-17 0 -40 -9 -54 -22z"/>
<path d="M4440 1240 l0 -300 180 0 180 0 0 25 0 25 -150 0 -150 0 0 115 0 115
120 0 120 0 0 25 0 25 -120 0 -120 0 0 110 0 110 150 0 150 0 0 25 0 25 -180
0 -180 0 0 -300z"/>
<path d="M5490 1240 l0 -300 25 0 25 0 0 300 0 300 -25 0 -25 0 0 -300z"/>
<path d="M5920 1515 l0 -25 100 0 100 0 0 -275 0 -275 25 0 25 0 0 275 0 275
100 0 100 0 0 25 0 25 -225 0 -225 0 0 -25z"/>
<path d="M7000 1240 l0 -300 30 0 30 0 0 140 0 140 175 0 175 0 0 -140 0 -140
25 0 25 0 0 300 0 300 -25 0 -25 0 0 -135 0 -135 -175 0 -175 0 0 135 0 135
-30 0 -30 0 0 -300z"/>
<path d="M8880 1241 l0 -301 30 0 30 0 2 247 3 246 107 -244 107 -244 33 0 32
0 111 248 110 249 3 -251 2 -251 25 0 25 0 0 300 0 300 -29 0 c-16 0 -34 -6
-40 -14 -6 -7 -62 -128 -125 -270 l-113 -256 -119 267 -119 268 -37 3 -38 3 0
-300z"/>
<path d="M9930 1240 l0 -300 180 0 180 0 0 25 0 25 -150 0 -150 0 0 115 0 115
120 0 120 0 0 25 0 25 -120 0 -120 0 0 110 0 110 150 0 150 0 0 25 0 25 -180
0 -180 0 0 -300z"/>
<path d="M10900 1515 l0 -25 100 0 100 0 0 -275 0 -275 25 0 25 0 0 275 0 275
100 0 100 0 0 25 0 25 -225 0 -225 0 0 -25z"/>
<path d="M12650 1239 l0 -301 153 4 c141 3 155 5 202 30 189 100 226 340 75
487 -67 65 -125 81 -290 81 l-140 0 0 -301z m335 224 c122 -65 170 -211 108
-334 -52 -101 -133 -139 -298 -139 l-85 0 0 251 0 251 118 -4 c95 -3 125 -8
157 -25z"/>
<path d="M13712 1523 c-17 -32 -252 -571 -252 -577 0 -3 8 -6 18 -6 25 0 45
25 72 88 l22 52 168 0 167 0 23 -52 c30 -67 48 -88 73 -88 24 0 34 -28 -116
317 -107 247 -125 282 -144 283 -12 0 -26 -8 -31 -17z m163 -374 c6 -18 -1
-19 -134 -19 -78 0 -141 3 -141 6 0 3 23 58 51 122 28 64 60 137 71 161 l19
45 64 -148 c36 -82 67 -157 70 -167z"/>
<path d="M14230 1535 c0 -3 51 -73 113 -157 l112 -152 3 -143 3 -143 25 0 24
0 0 138 c0 159 -10 136 143 342 47 63 81 117 76 118 -33 12 -64 -15 -150 -131
-50 -67 -93 -124 -94 -125 -2 -2 -43 49 -91 115 -47 65 -94 124 -102 131 -15
11 -62 17 -62 7z"/>
</g>
</svg>
