<svg xmlns="http://www.w3.org/2000/svg" xmlns:xlink="http://www.w3.org/1999/xlink" version="1.1" width="1008pt" height="720pt" viewBox="0 0 1008 720">
<g id="layer_1" data-name="">
<path transform="matrix(1,0,0,-1,0,720)" d="M233.0512 341.6831 275.5261 270.4212 489.5544 270.4039 489.5532 320.5587 327.9722 320.5732 326.8219 369.6769 439.8945 369.7041V419.8329L327.9722 419.8351 326.6875 469.5267 489.5544 469.5463 489.4203 519.6546 180.2322 519.673C220.9167 513.4966 256.7367 498.4452 271.1001 453.083 282.1048 418.3313 275.6514 389.4576 255.0246 361.2402 247.0895 350.3846 241.7638 349.5591 233.0512 341.6831" fill="#0c1439" fill-rule="evenodd"/>
<path transform="matrix(1,0,0,-1,0,720)" d="M684.6327 270.4289 894.0875 270.4399 893.9577 320.5894 731.3496 320.6035 731.3366 519.7929 601.5986 519.6064C604.3422 503.4986 664.3242 324.913 676.7456 283.847 679.3843 275.1222 679.1958 273.3242 684.6327 270.4289" fill="#0c1439" fill-rule="evenodd"/>
<path transform="matrix(1,0,0,-1,0,720)" d="M113.9125 374.2787 172.188 374.2764C245.9511 374.2795 244.878 470.0568 172.188 470.0546L113.9125 470.0557Z" fill="#0c1439" fill-rule="evenodd"/>
<path transform="matrix(1,0,0,-1,0,720)" d="M113.9125 270.4051 217.2396 270.4158 181.4207 325.201 113.9125 325.2095Z" fill="#0c1439" fill-rule="evenodd"/>
<path transform="matrix(1,0,0,-1,0,720)" d="M521.8075 271.6209 628.524 270.4584 617.8745 305.4027 532.184 304.8313Z" fill="#0c1439" fill-rule="evenodd"/>
<path transform="matrix(1,0,0,-1,0,720)" d="M547.8483 354.0728 601.8877 354.162 575.3897 438.4261Z" fill="#0c1439" fill-rule="evenodd"/>
<text fill="#0c1439" xml:space="preserve" transform="matrix(1 0 -0 1 0 720)" font-size="40.461" font-family="Aquawax"><tspan y="-200.5308" x="198.5922 231.6481 271.44093 310.76853 333.7099 359.90794 384.64933 407.42887 433.62663 476.57524 523.6915 574.2468 597.18826 623.3859 657.65597 704.7722 747.3971 783.5485">TAKE IT HOME TODAY</tspan></text>
</g>
</svg>
